<svg width="50" height="50" viewBox="0 0 50 50" fill="none" xmlns="http://www.w3.org/2000/svg">
<circle cx="25" cy="25" r="25" fill="white"/>
<path d="M21.5504 33.2038C22.0772 33.0379 22.3697 32.4763 22.2038 31.9496C22.0379 31.4228 21.4763 31.1303 20.9496 31.2962L21.5504 33.2038ZM14.2539 27.2828L13.2867 27.0288L12.7788 28.9633L13.7461 29.2172L14.2539 27.2828ZM28.25 37.25V38.25H30.25V37.25H28.25ZM28.375 27.625L28.2681 26.6307C27.8847 26.6719 27.5591 26.93 27.4314 27.2939C27.3037 27.6578 27.3967 28.0627 27.6703 28.3345L28.375 27.625ZM35.25 20.075L36.25 20.075L36.25 20.0718L35.25 20.075ZM33.5837 16.0625L32.6516 15.7005C32.5083 16.0695 32.5961 16.4883 32.8756 16.7686L33.5837 16.0625ZM33.4837 12.0287L34.3968 11.621C34.2763 11.3511 34.0426 11.1484 33.7585 11.0672L33.4837 12.0287ZM29.1388 13.6125L28.8865 14.5802C29.1576 14.6508 29.446 14.6045 29.6813 14.4525L29.1388 13.6125ZM21.3612 13.6125L20.8188 14.4526C21.0542 14.6045 21.3424 14.6508 21.6135 14.5802L21.3612 13.6125ZM17.0163 12.0287L16.7413 11.0673C16.4572 11.1485 16.2236 11.3512 16.1032 11.621L17.0163 12.0287ZM16.9163 16.0625L17.6243 16.7687C17.9039 16.4883 17.9917 16.0695 17.8484 15.7005L16.9163 16.0625ZM15.25 20.1075L16.25 20.1075L16.25 20.1049L15.25 20.1075ZM22.125 27.625L22.8309 28.3333C23.1023 28.0628 23.1953 27.661 23.0703 27.2988C22.9453 26.9366 22.6243 26.6776 22.2438 26.6321L22.125 27.625ZM21.25 30.25H22.25C22.25 30.2256 22.2491 30.2011 22.2473 30.1768L21.25 30.25ZM20.25 37.25V38.25H22.25V37.25H20.25ZM20.9496 31.2962C19.7436 31.6761 18.9786 31.6337 18.4717 31.4664C17.9677 31.3001 17.5813 30.9655 17.2128 30.4851C17.0262 30.2418 16.8542 29.9745 16.6736 29.6822C16.5019 29.4043 16.3076 29.0784 16.1109 28.7884C15.7293 28.2256 15.1663 27.5223 14.2539 27.2828L13.7461 29.2172C13.905 29.2589 14.1141 29.4072 14.4556 29.9108C14.6205 30.1541 14.7755 30.415 14.9721 30.7333C15.1598 31.0372 15.3751 31.3754 15.6259 31.7024C16.1324 32.3626 16.822 33.0281 17.8449 33.3656C18.8648 33.7022 20.0777 33.6677 21.5504 33.2038L20.9496 31.2962ZM30.25 30.125C30.25 29.4902 30.2222 28.9102 30.042 28.3692C29.8502 27.7932 29.5186 27.3514 29.0797 26.9155L27.6703 28.3345C27.9802 28.6423 28.086 28.8256 28.1445 29.0011C28.2146 29.2117 28.25 29.5098 28.25 30.125H30.25ZM28.4819 28.6193C30.2878 28.4252 32.2581 27.9697 33.7753 26.6564C35.3359 25.3055 36.25 23.1989 36.25 20.075H34.25C34.25 22.7936 33.471 24.2745 32.4663 25.1442C31.4182 26.0515 29.951 26.4498 28.2681 26.6307L28.4819 28.6193ZM36.25 20.0718C36.2443 18.3033 35.5406 16.6087 34.2919 15.3564L32.8756 16.7686C33.7521 17.6475 34.246 18.837 34.25 20.0782L36.25 20.0718ZM34.5159 16.4245C34.8145 15.6557 34.9577 14.8353 34.9373 14.0108L32.9379 14.0604C32.9518 14.6206 32.8545 15.1781 32.6516 15.7005L34.5159 16.4245ZM34.9373 14.0108C34.9168 13.1863 34.7331 12.374 34.3968 11.621L32.5707 12.4365C32.7992 12.9482 32.924 13.5002 32.9379 14.0604L34.9373 14.0108ZM33.4837 12.0287C33.7585 11.0672 33.7575 11.067 33.7566 11.0667C33.7563 11.0666 33.7553 11.0663 33.7547 11.0661C33.7534 11.0658 33.7521 11.0654 33.7507 11.065C33.7481 11.0643 33.7453 11.0636 33.7425 11.0628C33.7368 11.0613 33.7308 11.0597 33.7245 11.0581C33.7118 11.0549 33.6977 11.0516 33.6823 11.0482C33.6514 11.0414 33.6151 11.0345 33.5734 11.0281C33.4898 11.0152 33.3848 11.0045 33.258 11.0011C33.0038 10.9943 32.6658 11.0171 32.2395 11.1082C31.3883 11.29 30.19 11.743 28.5962 12.7725L29.6813 14.4525C31.12 13.5233 32.0942 13.1843 32.6574 13.064C32.9382 13.004 33.1179 12.9981 33.2046 13.0004C33.2482 13.0016 33.2695 13.0048 33.2695 13.0048C33.2695 13.0049 33.2644 13.0041 33.2543 13.0018C33.2492 13.0007 33.2429 12.9993 33.2353 12.9974C33.2315 12.9964 33.2275 12.9953 33.2231 12.9942C33.2209 12.9936 33.2186 12.993 33.2163 12.9923C33.2151 12.992 33.2139 12.9917 33.2127 12.9913C33.2121 12.9911 33.2112 12.9909 33.2109 12.9908C33.21 12.9905 33.209 12.9903 33.4837 12.0287ZM29.391 12.6448C26.6757 11.9371 23.8243 11.9371 21.109 12.6448L21.6135 14.5802C23.998 13.9586 26.502 13.9586 28.8865 14.5802L29.391 12.6448ZM21.9037 12.7724C20.3093 11.743 19.1111 11.29 18.2601 11.1082C17.8338 11.0171 17.496 10.9943 17.2418 11.0011C17.115 11.0045 17.0101 11.0152 16.9264 11.0281C16.8847 11.0345 16.8484 11.0415 16.8175 11.0482C16.8021 11.0516 16.788 11.0549 16.7753 11.0582C16.769 11.0598 16.7629 11.0613 16.7573 11.0629C16.7544 11.0636 16.7517 11.0644 16.749 11.0651C16.7477 11.0655 16.7464 11.0659 16.7451 11.0662C16.7444 11.0664 16.7435 11.0667 16.7432 11.0668C16.7422 11.067 16.7413 11.0673 17.0163 12.0287C17.2912 12.9902 17.2903 12.9905 17.2894 12.9907C17.2891 12.9908 17.2881 12.9911 17.2875 12.9912C17.2863 12.9916 17.2851 12.9919 17.284 12.9922C17.2816 12.9929 17.2793 12.9935 17.2771 12.9941C17.2728 12.9953 17.2687 12.9964 17.2649 12.9973C17.2573 12.9992 17.251 13.0007 17.2459 13.0018C17.2357 13.004 17.2306 13.0048 17.2306 13.0048C17.2306 13.0048 17.2359 13.004 17.2466 13.0031C17.2573 13.0021 17.2734 13.001 17.2952 13.0004C17.3818 12.9981 17.5613 13.004 17.8421 13.064C18.4052 13.1843 19.3795 13.5233 20.8188 14.4526L21.9037 12.7724ZM16.1032 11.621C15.7669 12.374 15.5832 13.1863 15.5627 14.0108L17.5621 14.0604C17.576 13.5002 17.7008 12.9482 17.9293 12.4365L16.1032 11.621ZM15.5627 14.0108C15.5423 14.8353 15.6855 15.6557 15.9841 16.4245L17.8484 15.7005C17.6455 15.1781 17.5482 14.6206 17.5621 14.0604L15.5627 14.0108ZM16.2082 15.3563C15.5852 15.981 15.0916 16.7224 14.7556 17.5381L16.6048 18.2999C16.8406 17.7274 17.1871 17.2071 17.6243 16.7687L16.2082 15.3563ZM14.7556 17.5381C14.4195 18.3539 14.2477 19.2278 14.25 20.1101L16.25 20.1049C16.2484 19.4858 16.369 18.8724 16.6048 18.2999L14.7556 17.5381ZM14.25 20.1075C14.25 23.2133 15.1661 25.3015 16.7275 26.6431C18.242 27.9446 20.2088 28.4028 22.0062 28.6179L22.2438 26.6321C20.5524 26.4297 19.0817 26.0292 18.031 25.1262C17.027 24.2635 16.25 22.8017 16.25 20.1075H14.25ZM21.4191 26.9167C20.42 27.9124 20.1627 29.0973 20.2527 30.3232L22.2473 30.1768C22.1873 29.3602 22.3525 28.8101 22.8309 28.3333L21.4191 26.9167ZM20.25 30.25V37.25H22.25V30.25H20.25ZM30.25 37.25V34.25H28.25V37.25H30.25ZM30.25 34.25V30.125H28.25V34.25H30.25Z" fill="black"/>
</svg>
