<svg width="50" height="50" viewBox="0 0 50 50" fill="none" xmlns="http://www.w3.org/2000/svg">
<circle cx="25" cy="25" r="25" fill="white"/>
<path d="M38.9568 13L39.9546 12.9338C39.928 12.5327 39.6638 12.1865 39.2839 12.055C38.9039 11.9235 38.4822 12.0323 38.2133 12.3312L38.9568 13ZM37.9599 18.9178C37.9599 18.3655 37.5122 17.9178 36.9599 17.9178C36.4076 17.9178 35.9599 18.3655 35.9599 18.9178H37.9599ZM24.9784 19.0822L23.9784 19.0822L23.9784 19.0822L24.9784 19.0822ZM24.9784 21L25.9784 21L25.9784 21L24.9784 21ZM11 35V34C10.5595 34 10.1708 34.2883 10.043 34.7099C9.9152 35.1315 10.0783 35.587 10.4447 35.8317L11 35ZM12.9969 13L13.9334 12.6494C13.7939 12.2767 13.4467 12.0222 13.0493 12.0014C12.6519 11.9805 12.28 12.1973 12.1022 12.5533L12.9969 13ZM20.9846 31L21.6922 31.7066C21.9369 31.4615 22.0374 31.1072 21.9578 30.7701C21.8781 30.433 21.6298 30.1611 21.3012 30.0515L20.9846 31ZM35.4321 14.9468L34.6904 15.6174L35.0507 16.0159L35.5819 15.9355L35.4321 14.9468ZM37.959 13.0662C38.0621 14.6218 37.9667 15.5662 37.7145 16.2771C37.4698 16.9671 37.0425 17.5358 36.268 18.278L37.6517 19.722C38.5273 18.883 39.205 18.0576 39.5994 16.9458C39.9864 15.8549 40.0644 14.59 39.9546 12.9338L37.959 13.0662ZM37.9599 20.375V18.9178H35.9599V20.375H37.9599ZM23.9784 19.0822L23.9784 21L25.9784 21L25.9784 19.0822L23.9784 19.0822ZM23.9784 21L23.9784 22L25.9784 22L25.9784 21L23.9784 21ZM31.0512 12C27.1435 12 23.9784 15.1723 23.9784 19.0822H25.9784C25.9784 16.2739 28.251 14 31.0512 14V12ZM35.9599 20.375C35.9599 29.0059 28.9743 36 20.3605 36V38C30.0818 38 37.9599 30.1076 37.9599 20.375H35.9599ZM12.0604 13.3506C13.1472 16.2531 17.2285 22 24.9784 22V20C18.3505 20 14.8436 15.0802 13.9334 12.6494L12.0604 13.3506ZM12.1022 12.5533C10.0088 16.7467 9.68621 20.8139 11.2077 24.2772C12.7258 27.7326 15.992 30.3875 20.6679 31.9485L21.3012 30.0515C16.9911 28.6125 14.2665 26.2674 13.0388 23.4728C11.8146 20.6861 11.9912 17.2533 13.8916 13.4467L12.1022 12.5533ZM20.2769 30.2934C19.0727 31.4995 15.4522 34 11 34V36C16.133 36 20.2339 33.1671 21.6922 31.7066L20.2769 30.2934ZM36.1739 14.2761C34.9113 12.8798 33.0833 12 31.0512 12V14C32.494 14 33.7906 14.6224 34.6904 15.6174L36.1739 14.2761ZM35.5819 15.9355C37.1029 15.7051 38.5869 14.9063 39.7002 13.6688L38.2133 12.3312C37.3976 13.2379 36.3278 13.7997 35.2824 13.958L35.5819 15.9355ZM10.4447 35.8317C13.7261 38.0226 17.1667 38 20.3605 38V36C17.1007 36 14.2647 35.9774 11.5553 34.1683L10.4447 35.8317Z" fill="black"/>
</svg>
